<svg width="472" height="593" viewBox="0 0 472 593" fill="none" xmlns="http://www.w3.org/2000/svg">
<path d="M82.5 185L238 93.9999L405.5 197.5L402.5 398L238 496L79.5 393.5L82.5 185Z" fill="#242424"/>
<path d="M346 519.403C346 522.881 344.194 526.108 341.23 527.927L241.4 589.186C238.103 591.209 233.935 591.149 230.697 589.033L27.9748 456.483C21.8936 452.507 21.9487 443.578 28.0785 439.677L75.6078 409.431C78.8955 407.339 83.0992 407.347 86.3786 409.452L230.583 502.022C233.882 504.14 238.114 504.135 241.408 502.009L330.577 444.454C337.231 440.159 346 444.936 346 452.856V519.403Z" fill="#95FF00"/>
<path d="M126.934 74.6902C126.917 71.2131 128.708 67.9769 131.663 66.144L231.197 4.40434C234.484 2.36534 238.652 2.40505 241.9 4.50631L445.259 136.077C451.359 140.024 451.347 148.954 445.236 152.884L397.853 183.359C394.576 185.467 390.372 185.479 387.082 183.389L242.434 91.5149C239.124 89.413 234.892 89.4387 231.609 91.5805L142.718 149.564C136.085 153.891 127.293 149.156 127.255 141.237L126.934 74.6902Z" fill="#95FF00"/>
<path d="M238 97.9999V283.5" stroke="white" stroke-width="22" stroke-linecap="round"/>
<path d="M79 207L79 398" stroke="white" stroke-width="22" stroke-linecap="round"/>
<line x1="406" y1="199" x2="406" y2="378" stroke="white" stroke-width="22" stroke-linecap="round"/>
<path d="M79 397L238 288" stroke="white" stroke-width="22" stroke-linecap="round"/>
<path d="M236 504.988L404.886 396" stroke="white" stroke-width="22" stroke-linecap="round"/>
<path d="M79 399L236 505" stroke="white" stroke-width="22" stroke-linecap="round"/>
<path d="M237 87.9999L405.878 197.001" stroke="white" stroke-width="22" stroke-linecap="round"/>
<path d="M68 197.008L236.878 88.0064" stroke="white" stroke-width="22" stroke-linecap="round"/>
<path d="M237 288L405.878 397.001" stroke="white" stroke-width="22" stroke-linecap="round"/>
<path d="M0 142.837C0 139.411 1.75402 136.224 4.64823 134.39L79.8826 86.7259C86.5407 82.5077 95.2344 87.2915 95.2344 95.1733V283.513C95.2344 286.801 96.8499 289.878 99.5557 291.745L238.574 387.653C246.651 393.225 242.707 405.884 232.895 405.884H110.8C108.754 405.884 106.756 405.256 105.078 404.085L4.27747 333.746C1.59717 331.876 0 328.814 0 325.545L0 142.837Z" fill="#95FF00"/>
<path d="M472 446.047C472 449.473 470.246 452.66 467.352 454.494L392.117 502.158C385.459 506.376 376.766 501.592 376.766 493.711L376.766 305.37C376.766 302.083 375.15 299.006 372.444 297.139L233.426 201.231C225.349 195.659 229.293 183 239.105 183H361.379C363.314 183 365.207 183.561 366.83 184.616L467.451 250.042C470.288 251.887 472 255.042 472 258.426L472 446.047Z" fill="#95FF00"/>
</svg>
